/* XPM */
static char *_719f5a60a8e491bb53a427a99474255[] = {
/* columns rows colors chars-per-pixel */
"32 32 164 2 ",
"   c black",
".  c #161616",
"X  c #222424",
"o  c #2D3337",
"O  c #333535",
"+  c #333839",
"@  c #383F44",
"#  c #3D4243",
"$  c #414446",
"%  c #484848",
"&  c #454D52",
"*  c #4D585D",
"=  c #545B5E",
"-  c #5A5C5D",
";  c #4F5B61",
":  c #525C61",
">  c #566269",
",  c #5B666B",
"<  c #5D686E",
"1  c #5E6B72",
"2  c #616264",
"3  c #656768",
"4  c #6A6B6C",
"5  c #6C6E70",
"6  c #697376",
"7  c #67757D",
"8  c #68787F",
"9  c #69777D",
"0  c #727475",
"q  c #747A7C",
"w  c #787879",
"e  c #6F7E86",
"r  c #7B8A8F",
"t  c #788388",
"y  c #798991",
"u  c #7E939E",
"i  c #5D8AA2",
"p  c #6592A8",
"a  c #729EB4",
"s  c #75A2B9",
"d  c #79A7BF",
"f  c #808384",
"g  c #888B8C",
"h  c #848E92",
"j  c #8D8F90",
"k  c #8E9293",
"l  c #84969E",
"z  c #8B999E",
"x  c #969A9C",
"c  c #96999A",
"v  c #849AA4",
"b  c #8B9CA4",
"n  c #8B9FAA",
"m  c #9D9FA1",
"M  c #919CA1",
"N  c #98A8AE",
"B  c #9DA2A4",
"V  c #8FA6B1",
"C  c #8DA8B4",
"Z  c #95A7B0",
"A  c #96AAB3",
"S  c #9AAEB7",
"D  c #9DB1BB",
"F  c #A2A3A4",
"G  c #ABACAE",
"H  c #A4A8AA",
"J  c #A1AEB2",
"K  c #ADAFB0",
"L  c #A7B2B6",
"P  c #AEB4B6",
"I  c #A9B9BF",
"U  c #B3B5B6",
"Y  c #B4B7B8",
"T  c #B9BBBC",
"R  c #81AEC6",
"E  c #88AFC1",
"W  c #86B1C6",
"Q  c #85B3CB",
"!  c #8AB6CD",
"~  c #8CB8CF",
"^  c #97B8C7",
"/  c #8DBBD2",
"(  c #92BED5",
")  c #A4BBC6",
"_  c #A6BEC9",
"`  c #A9BFC9",
"'  c #A6B9C0",
"]  c #B1BFC5",
"[  c #9BC3D6",
"{  c #94C2DA",
"}  c #9AC6DD",
"|  c #9EC9DE",
" . c #ADC2CD",
".. c #BBC3C7",
"X. c #B4C1C5",
"o. c #AFC5D0",
"O. c #A0C7D9",
"+. c #A2C9DC",
"@. c #ADCCDB",
"#. c #A6C3D0",
"$. c #B1C7D1",
"%. c #B3CAD5",
"&. c #BFCDD2",
"*. c #B3CCD8",
"=. c #B8CFDA",
"-. c #B0D1DF",
";. c #B9D1DC",
":. c #9CCAE2",
">. c #A2CEE4",
",. c #ADCFE1",
"<. c #AFD3E4",
"1. c #A4D2EA",
"2. c #A9D7EF",
"3. c #B4D4E3",
"4. c #BDD5E1",
"5. c #B6D8E6",
"6. c #B7D7E8",
"7. c #B4DBEE",
"8. c #BCDCE9",
"9. c #AEDCF3",
"0. c #B1DEF5",
"q. c #BBE3F6",
"w. c #B3E1F9",
"e. c #BAE6FD",
"r. c #BFE8FF",
"t. c #C5C7C9",
"y. c #C7C9CB",
"u. c #CBCCCD",
"i. c #CDCFD0",
"p. c #C7D0D5",
"a. c #CFD1D2",
"s. c #C6D7DD",
"d. c #D1D3D5",
"f. c #D6D8DA",
"g. c #DADCDE",
"h. c #C1D9E4",
"j. c #C3DEEA",
"k. c #CBDCE3",
"l. c #DDDEE0",
"z. c #D3DEE4",
"x. c #DEE0E2",
"c. c #D1E6EF",
"v. c #D1E2E7",
"b. c #C2E3F3",
"n. c #C4EAFE",
"m. c #CBEEFF",
"M. c #D4E7F0",
"N. c #DAEAF2",
"B. c #D1EEFB",
"V. c #D1E9F3",
"C. c #D3F1FE",
"Z. c #DCF3FF",
"A. c #E2E4E6",
"S. c #E5E7E8",
"D. c #E7E9EA",
"F. c #E9EBED",
"G. c #EDEFF1",
"H. c #EEF1F3",
"J. c #E2F5FF",
"K. c #E8F7FF",
"L. c #EAF8FE",
"P. c #F2F4F6",
"I. c #F1FAFF",
"U. c None",
/* pixels */
"U.U.U.U.U.U.U.U.U.U.U.U.U.U.U.U.U.U.U.U.U.U.    U.U.U.U.U.U.U.U.",
"U.U.U.U.U.U.U.U.U.U.U.U.U.U.U.U.U.U.U.U.X &.C.v.  U.U.  U.U.U.U.",
"U.U.U.U.U.U.U.U.U.U.U.U.U.U.U.U.U.U.  L B.n.3.M.  . w T   U.U.U.",
"U.U.U.U.U.U.U.U.U.U.U.U.U.U.U.U.  q B.n.<.%.=.c.2 F F.G.  U.U.U.",
"U.U.U.U.U.U.U.U.U.U.U.U.U.U.U.$ c.m.7.*.$.` b B F.P.P.u.U.U.U.U.",
"U.U.U.U.U.U.U.U.U.U.U.U.U.X &.m.q.@.%.` A h d.P.P.P.P.j U.U.U.U.",
"U.U.U.U.U.U.  h L   U.  L C.n.@.%.o.D h T P.P.P.P.P.G.X U.U.U.U.",
"U.U.U.U.U.q c.m.b.V.] B.n.<.%.$.) r G P.P.P.P.P.G.F.A.  U.  U.U.",
"U.U.U.$ s.m.7.3.h.h.j.6.*.%.` l x F.P.P.P.G.G.D.S.g.P   P K.P U.",
"U.U.X.B.q.3.h.h.4.4.;.%.` N f x.P.P.P.H.G.F.S.g.a.m m H.J.Z.B.  ",
"U.  C.,.4.4.4.;.;.%.o.D r t.P.P.P.P.H.G.D.x.d.K 5 H J.K.m.7.I U.",
"U.  m._ h.h.;.=.$.) t U P.P.P.P.H.G.F.x.d.t.5 k N.J.m.9.| j.  U.",
"U.  C.) 4.=.%.` h H F.P.P.P.P.G.F.S.f.y.c 2 k.C.J.w.2.} 5.- U.U.",
"U.  m._ *.#.D j l.P.P.P.P.H.F.S.x.a.G - ..C.C.e.:./ :.+.S   U.U.",
"U.  n.D  .D t y.P.P.P.H.G.S.x.d.T 0 j L.C.r.9.} { } } h.  U.U.U.",
"U.  b.A S l * P.P.P.G.F.A.f.y.f t z.C.B.9.:.{ } { { 5.# U.U.U.U.",
"U.  8.n b e w H.G.G.S.g.a.F 3 ..J.J.e.} } } / ( { } M   U.U.U.U.",
"U.  5.l y , x G.D.x.d.T 4 x I.Z.n.0.:.:.{ { Q / | =.  U.U.U.U.U.",
"U.  @.y 9 @ u.S.f.y.0 f N.J.m.0.1./ :.Q ~ R R / 5.X U.U.U.U.U.U.",
"U.  #.e < # A.a.F 2 p.K.Z.w.1.1.:.{ ! / { ! [ 3.=   U.U.U.U.U.U.",
"U.  ) 7 = 0 u.K O @.C.n.1.{ >.} { / R Q [ 3.N     U.U.U.U.U.U.U.",
"U.  S 1 & k U $ v W } :.:.:.Q ( { / ~ |  .X   U.U.U.U.U.U.U.U.U.",
"U.  C > o K 4 , ~ R :.} / / ~ ~ ~ ( 4.-   U.U.U.U.U.U.U.U.U.U.U.",
"U.  v ; $ j + ~ s :.} :.~ R Q ( ,.b     U.U.U.U.U.U.U.U.U.U.U.U.",
"U.  u * - O C s ~ :.{ } Q } O.I X   U.U.U.U.U.U.U.U.U.U.U.U.U.U.",
"U.  u * % y W s :.! ( ( >.;.#   U.U.U.U.U.U.U.U.U.U.U.U.U.U.U.U.",
"U.  v > e E a / [ ~ } 8.6     U.U.U.U.U.U.U.U.U.U.U.U.U.U.U.U.U.",
"U.  V 7 E p d { ( O.I     U.U.U.U.U.U.U.U.U.U.U.U.U.U.U.U.U.U.U.",
"U.  J ) a i Q +.$.#   U.U.U.U.U.U.U.U.U.U.U.U.U.U.U.U.U.U.U.U.U.",
"U.U.  O.p +.4.6     U.U.U.U.U.U.U.U.U.U.U.U.U.U.U.U.U.U.U.U.U.U.",
"U.U.  b 3.J     U.U.U.U.U.U.U.U.U.U.U.U.U.U.U.U.U.U.U.U.U.U.U.U.",
"U.U.U.      U.U.U.U.U.U.U.U.U.U.U.U.U.U.U.U.U.U.U.U.U.U.U.U.U.U."
};
